Coordinates
version=1
nRows=14
nColumns=24
inDegrees=yes

Units are S.I. units (second, meters, Newtons, ...)
Angles are in degrees.

endheader
time	pelvis_tilt	pelvis_list	pelvis_rotation	pelvis_tx	pelvis_ty	pelvis_tz	hip_flexion_r	hip_adduction_r	hip_rotation_r	knee_angle_r	ankle_angle_r	subtalar_angle_r	mtp_angle_r	hip_flexion_l	hip_adduction_l	hip_rotation_l	knee_angle_l	ankle_angle_l	subtalar_angle_l	mtp_angle_l	lumbar_extension	lumbar_bending	lumbar_rotation
      3.11500000	     -9.63729251	      6.71969824	     -3.60956380	     -2.38479945	     -0.04670048	      0.45698457	     23.97979176	     -8.12871440	      0.38841506	    -69.57605221	    -18.42928418	      4.20835783	     28.01368717	     26.47021978	     12.22534494	      3.00455388	    -31.17037778	      6.52258637	     11.44171289	     13.59180340	      8.21545778	     -6.53106583	      7.27654143
      3.12000000	     -9.56723400	      6.38871034	     -3.22493840	     -2.37722910	     -0.04526201	      0.45623918	     24.70807614	     -7.79169932	     -0.00623747	    -69.53589881	    -17.61708798	      4.20288956	     28.28405751	     25.51640651	     12.20068562	      3.78482823	    -30.73304441	      6.74280224	     11.25129894	     13.34004794	      8.10542967	     -6.20017119	      6.59612323
      3.12500000	     -9.48874847	      6.04094633	     -2.84654765	     -2.36961142	     -0.04379244	      0.45552207	     25.40156632	     -7.44269639	     -0.40417249	    -69.39202722	    -16.83685097	      4.28115655	     28.56554076	     24.52915254	     12.13759245	      4.58026123	    -30.25171543	      6.92753425	     11.04922064	     13.10411611	      8.00238312	     -5.85321021	      5.93332001
      3.13000000	     -9.39605399	      5.70257039	     -2.46942213	     -2.36202664	     -0.04237208	      0.45479190	     26.07308197	     -7.12218169	     -0.81367372	    -69.17623198	    -16.05488169	      4.40627413	     28.85556649	     23.52466589	     12.07144454	      5.38158433	    -29.75510073	      7.10041809	     10.79793840	     12.84891239	      7.87820163	     -5.51449849	      5.26119556
      3.13500000	     -9.30920128	      5.34647882	     -2.10900962	     -2.35437987	     -0.04095371	      0.45408406	     26.72756347	     -6.78486095	     -1.21911213	    -68.86458624	    -15.31559123	      4.58144488	     29.11576383	     22.50752973	     11.95906141	      6.18000682	    -29.22379074	      7.25340465	     10.54796864	     12.60565990	      7.78024081	     -5.15496253	      4.60840715
      3.14000000	     -9.22057468	      4.98963722	     -1.76981208	     -2.34668943	     -0.03955819	      0.45341300	     27.36279839	     -6.44580426	     -1.61056299	    -68.46809310	    -14.60315720	      4.78912742	     29.34050211	     21.47381786	     11.81629678	      6.96032479	    -28.65874402	      7.38850437	     10.28749557	     12.36270261	      7.69215641	     -4.79017937	      3.97052777
      3.14500000	     -9.12620837	      4.63829266	     -1.45774866	     -2.33896519	     -0.03818933	      0.45278496	     27.97623768	     -6.10947195	     -1.98425735	    -67.99010866	    -13.91564668	      5.01767677	     29.52108950	     20.42255928	     11.64879716	      7.71690280	    -28.06235706	      7.50701147	     10.01615486	     12.11302833	      7.61051796	     -4.42788504	      3.36347347
      3.15000000	     -9.02226667	      4.29109342	     -1.15861757	     -2.33122118	     -0.03686339	      0.45216159	     28.56304296	     -5.78152762	     -2.34743484	    -67.43947631	    -13.25068186	      5.26134448	     29.65114291	     19.35172406	     11.46225277	      8.45442541	    -27.43871466	      7.61354028	      9.73523278	     11.85465029	      7.52483142	     -4.06714382	      2.76583654
      3.15500000	     -8.91540996	      3.94594906	     -0.87424056	     -2.32349826	     -0.03558544	      0.45157563	     29.13215068	     -5.45563065	     -2.70274388	    -66.81461056	    -12.61497116	      5.50213012	     29.72116417	     18.27771620	     11.25084651	      9.16892447	    -26.79878809	      7.70899621	      9.45900176	     11.59428595	      7.43779699	     -3.70954325	      2.18257446
      3.16000000	     -8.80697230	      3.60131543	     -0.58674163	     -2.31583073	     -0.03436851	      0.45099878	     29.68494331	     -5.13901200	     -3.06335097	    -66.12090079	    -12.00910610	      5.73159354	     29.72772442	     17.20923567	     11.01960863	      9.86821620	    -26.15327952	      7.79506565	      9.19536333	     11.33259505	      7.34217258	     -3.35662615	      1.59760845
      3.16500000	     -8.70608637	      3.25108202	     -0.27657584	     -2.30826184	     -0.03322664	      0.45040442	     30.23025166	     -4.83322248	     -3.44223545	    -65.35802688	    -11.44527136	      5.93981111	     29.68244459	     16.16660807	     10.76690597	     10.55257877	    -25.51581067	      7.88269139	      8.96473923	     11.08512022	      7.24075992	     -3.00186849	      0.98827705
      3.17000000	     -8.60033319	      2.90470270	      0.06668318	     -2.30083905	     -0.03215841	      0.44978761	     30.75821030	     -4.55756189	     -3.84937448	    -64.53326892	    -10.90924754	      6.12219735	     29.57763459	     15.14331931	     10.50752341	     11.24120101	    -24.89536528	      7.96367410	      8.75772400	     10.83653970	      7.11239759	     -2.66119897	      0.34852292
      3.17500000	     -8.50438889	      2.55391723	      0.45488878	     -2.29358673	     -0.03116634	      0.44913865	     31.28234356	     -4.30482030	     -4.28471118	    -63.63913054	    -10.41884836	      6.27751145	     29.43035049	     14.16420049	     10.23218961	     11.92500872	    -24.30375717	      8.03738492	      8.60292135	     10.60495689	      6.97041420	     -2.32474825	     -0.32071729
      3.18000000	     -8.39540670	      2.22031921	      0.88520381	     -2.28652338	     -0.03027447	      0.44844480	     31.78658633	     -4.11011482	     -4.76097698	    -62.69629302	     -9.94720345	      6.39766263	     29.23036292	     13.20371008	      9.96848873	     12.61962751	    -23.73985863	      8.13095754	      8.46888536	     10.38372440	      6.78615481	     -2.01798926	     -1.05019940
